<?xml version="1.0" encoding="iso-8859-1"?>
<!-- Generator: Adobe Illustrator 19.2.1, SVG Export Plug-In . SVG Version: 6.00 Build 0)  -->
<!DOCTYPE svg PUBLIC "-//W3C//DTD SVG 1.1//EN" "http://www.w3.org/Graphics/SVG/1.1/DTD/svg11.dtd">
<svg version="1.1" xmlns="http://www.w3.org/2000/svg" xmlns:xlink="http://www.w3.org/1999/xlink" x="0px" y="0px"
	 viewBox="0 0 828.66 828.669" style="enable-background:new 0 0 828.66 828.669;" xml:space="preserve">
<g id="Player">
	<g>
		<g>
			<g>
				<g>
					<path style="fill:#ACBF65;" d="M809.016,540.765c-10.55,32.96-25.12,64.13-43.14,92.94
						c-60.96,97.49-161.4,167.93-279.24,188.67c-8.61,1.52-17.31,2.77-26.1,3.74c-0.75,0.09-1.5,0.17-2.25,0.25
						c-0.81,0.08-1.62,0.16-2.43,0.24c-5.42,0.54-10.85,0.98-16.33,1.3h-0.01c-6.58,0.4-13.2,0.64-19.86,0.73
						c-12.68,0.16-25.24-0.25-37.65-1.21c-7.97-0.61-15.88-1.46-23.72-2.52c-9.65-1.31-19.19-2.94-28.62-4.9h-0.01
						c-119.46-24.81-220.3-101.15-277.89-204.98c-11.01-19.84-20.44-40.7-28.11-62.39c-14.74-41.63-23.02-86.36-23.62-132.98
						c-0.7-53.92,8.94-105.56,27.08-153.05c6.32-16.57,13.68-32.64,22-48.12c59.11-109.98,166.5-190.36,294.18-212.41
						c18.66-3.22,37.76-5.2,57.2-5.84c2.83-0.1,5.67-0.16,8.51-0.2c192.63-2.48,356.24,126.9,404.92,304.4v0.01
						c6.57,23.96,11.05,48.81,13.21,74.32c0.86,9.98,1.36,20.06,1.49,30.24C829.216,454.965,822.306,499.275,809.016,540.765z"/>
				</g>
			</g>
		</g>
		<g>
			<path style="fill:#FFE2C5;" d="M439.516,827.905c-6.58,0.4-13.2,0.64-19.86,0.73c-12.68,0.16-25.24-0.25-37.65-1.21
				c-7.97-0.61-15.88-1.46-23.72-2.52c-9.65-1.31-19.19-2.94-28.62-4.9h-0.01c-20.17-20.76-42.97-45.95-44.25-54.89
				c-1.56-10.9-1.02-60.53-0.5-91.88c0.25-15.28,0.5-26.21,0.5-26.21l53.25-23.15v113.45L439.516,827.905z"/>
			<path style="fill:#FFE2C5;" d="M435.9,596.091c0,0,34.73,120.398,57.884,113.452c23.154-6.946,275.028-103.737,275.028-103.737
				l-8.103-37.5c0,0-209.041,37.046-232.195,55.569l-23.154-55.569L435.9,596.091z"/>
			<path style="fill:#FDFDFD;" d="M760.709,568.307c0,0-106.09,18.801-175.484,36.313c1.969,21.817,6.668,43.278,8.225,65.088
				c0.058,0.982,0.132,1.963,0.214,2.945c78.958-29.882,175.148-66.845,175.148-66.845L760.709,568.307z"/>
			<path style="fill:#FFE2C5;" d="M424.326,98.285l-53.26,23.16l-32.41-23.16c1.02-3.06,1.91-6.2,2.68-9.42
				c6.65-27.55,4.76-60.1,1.96-82.79c18.66-3.22,37.76-5.2,57.2-5.84c3.35,25.83,11.14,55.6,16.9,75.5
				C421.336,89.305,424.326,98.285,424.326,98.285z"/>
			<path style="fill:#FFE2C5;" d="M27.116,266.605c32.85,31.33,108.8,102.38,112.42,93.32c2.75-6.88,27.6-37.5,47.3-61.19
				c13.44-16.17,24.48-29.11,24.48-29.11l-25.47-23.15l-35.07,30.06l-29.76,25.51l-71.9-83.56L27.116,266.605z"/>
			<path style="fill:#FDFDFD;" d="M288.998,434.512c0,0-47.588,147.687-36.011,242.616l94.93-11.577
				c0,0,34.73-131.975,46.307-138.921c11.577-6.946,30.1,108.822,30.1,108.822l104.191-32.415l-76.407-213.013L288.998,434.512z"/>
			<path style="fill:#FFE2C5;" d="M653.544,350.663c-4.631-18.523-97.245-138.921-97.245-138.921l-27.784,34.73
				c0,0,92.614,90.299,76.407,120.399c-13.392,24.871-44.17,78.191-54.46,95.968c-2.214,1.845-4.575,3.515-7.258,4.53
				c-5.523,2.089-11.67,1.171-17.499,0.225c-7.162-1.163-14.324-2.325-21.486-3.488c-3.69-0.599-8.873-0.166-9.324,3.546
				c-0.396,3.254,3.477,5.17,6.628,6.074c10.163,2.915,20.325,5.829,30.487,8.744c-0.066,5.665-4.602,10.142-8.811,13.933
				c-5.856,5.275-11.713,10.55-17.57,15.825c-2.44,2.198-4.97,4.527-6.076,7.619c-1.105,3.092-0.226,7.16,2.757,8.533
				c4.33,1.993,8.589-2.554,11.841-6.039c4.456-4.775,10.133-8.4,16.34-10.433c-7.545,14.613-14.405,29.579-20.552,44.833
				c14.79-3.577,24.096-17.79,31.901-30.853c-0.23,10.811-3.842,21.526-10.204,30.27c5.964-0.329,9.95-6.176,12.448-11.601
				c2.498-5.425,4.977-11.601,10.42-14.059c0.48,7.223-0.382,14.532-2.53,21.445c1.817,1.808,5.084,1.161,6.88-0.668
				c1.795-1.83,2.493-4.44,3.109-6.928c5.662-22.886,10.143-46.417,10.435-69.892C590.935,451.289,657.533,366.619,653.544,350.663z
				"/>
			<path style="fill:#F29E4A;" d="M338.655,84.033c0,0-66.424,1.659-79.146,12.472c-22.416,19.053-103.768,168.49-119.975,173.121
				l60.199,37.046c0,0,53.253-76.407,57.884-67.145c4.631,9.261,16.207,118.083,20.838,196.805c0,0,173.652-30.1,187.544-30.1
				c13.892,0,9.261-180.598,13.892-192.175c4.631-11.577,34.73,62.515,50.938,57.884c16.208-4.631,50.938-37.046,50.938-37.046
				S515.242,95.109,494.866,82.615c-9.489-5.819-77.469-6.876-77.469-6.876S359.494,128.025,338.655,84.033z"/>
			<path style="fill:#75A4DD;" d="M809.016,540.765c-10.55,32.96-25.12,64.13-43.14,92.94c-0.59-8.7-1.18-17.39-1.77-26.09
				c-0.26-3.91-0.52-7.81-0.79-11.72c-0.63-9.41-1.94-20.01-8.12-26.6c-1.04-1.12-2.22-2.13-3.57-2.99l4.97,2.73l0.01,0.01l1.8,0.99
				c-0.28-0.38-0.54-0.78-0.78-1.18c-5.47-9.22,1.04-22.41,10.92-27.25c10.31-5.04,22.47-3.69,33.85-2.22
				C804.576,539.655,806.896,540.045,809.016,540.765z"/>
		</g>
	</g>
</g>
<g id="Livello_1">
</g>
</svg>
