<?xml version="1.0" encoding="iso-8859-1"?>
<!-- Generator: Adobe Illustrator 19.2.1, SVG Export Plug-In . SVG Version: 6.00 Build 0)  -->
<!DOCTYPE svg PUBLIC "-//W3C//DTD SVG 1.1//EN" "http://www.w3.org/Graphics/SVG/1.1/DTD/svg11.dtd">
<svg version="1.1" xmlns="http://www.w3.org/2000/svg" xmlns:xlink="http://www.w3.org/1999/xlink" x="0px" y="0px"
	 viewBox="0 0 828.661 828.67" style="enable-background:new 0 0 828.661 828.67;" xml:space="preserve">
<g id="Red_Card">
	<g>
		<g>
			<g>
				<g>
					<path style="fill:#ACBF65;" d="M486.635,822.375c-8.61,1.52-17.31,2.77-26.1,3.74c-0.75,0.09-1.5,0.17-2.25,0.25
						c-0.81,0.08-1.62,0.16-2.43,0.24c-11.92,1.19-23.99,1.87-36.2,2.03c-12.68,0.16-25.24-0.25-37.65-1.21
						c-7.97-0.61-15.88-1.46-23.72-2.52c-131.9-17.83-244.38-97.85-306.52-209.88c-11.01-19.84-20.44-40.7-28.11-62.39
						c-14.74-41.63-23.02-86.36-23.62-132.98c-2.95-228.81,180.16-416.68,408.97-419.62c192.63-2.48,356.24,126.9,404.92,304.4v0.01
						c6.57,23.96,11.05,48.81,13.21,74.32c0.86,9.98,1.36,20.06,1.49,30.24C831.285,614.985,683.145,787.795,486.635,822.375z"/>
				</g>
			</g>
		</g>
		<g>
			<g>
				<path style="fill:#FFD9B6;" d="M460.54,270.625c6.276-2.323,67.317-19.808,68.263-2.338
					c1.036,19.128-70.211,33.187-79.216,35.898c6.774,1.196,62.686,5.13,66.151,17.1c5.452,18.835-62.564,10.573-68.529,10.47
					c3.208,0.672,53.396,16.414,47.073,30.284c-6.196,13.593-90.663-10.286-102.466-12.784
					c20.451-44.938,26.898-82.868,82.562-80.547"/>
				<path style="fill:#FFE2C5;" d="M455.855,826.605c-11.92,1.19-23.99,1.87-36.2,2.03c-12.68,0.16-25.24-0.25-37.65-1.21
					c1.21-75.28,3.22-327.4,4.28-369.03c0.31-12.11,0.52-24.7-4.5-35.72c-4.81-10.54-13.85-18.42-21.75-26.9
					c-7.89-8.49-15.17-18.84-14.92-30.43c0.3-13.45,10.46-24.41,15.23-36.98c3.36-8.85,4.02-18.47,6.52-27.6
					c3.54-12.88,10.65-24.46,15.64-36.86c5.64-14.01,8.52-28.94,12.02-43.64c1.26-5.31,2.8-10.92,6.86-14.57l8.35,91.09
					L455.855,826.605z"/>
				
					<rect x="340.067" y="101.643" transform="matrix(0.9964 -0.0851 0.0851 0.9964 -16.4388 35.9877)" style="fill:#E06153;" width="147.763" height="218.387"/>
				<path style="fill:#FFE2C5;" d="M460.065,439.415c-1.08,50-4.21,387.19-4.21,387.19l-73.44-432.82
					c-0.38-12.62-0.76-25.25-1.14-37.88c-0.15-4.96-0.27-10.07,1.52-14.69c1.75-4.53,5.18-8.17,8.25-11.93
					c8.03-9.83,13.9-20.86,18.69-32.5c11.35-27.53,16.74-58.47,30.8-85c4-7.54,11-15.74,19.31-13.79
					c8.28,1.94,10.95,12.38,10.84,20.89c-0.26,20.8-7.48,40.87-10.13,61.51c-1.21,9.45-1.46,19-1.71,28.52
					c-0.19,7.35-0.37,14.74,0.57,22.04c1.13,8.63,3.82,16.98,6.33,25.31c6.18,20.51,11.14,43.59,1.21,62.57
					c-2.08,3.97-4.79,7.68-5.97,12.01C460.225,433.625,460.125,436.535,460.065,439.415z"/>
				<path style="fill:#FFE2C5;" d="M387.191,199.071"/>
			</g>
			<path style="fill:#50535A;" d="M489.015,676.185l-2.38,146.19c-21.78,3.83-44.15,5.97-66.98,6.26
				c-20.83,0.27-41.33-1.01-61.37-3.73l-21.87-158.33L489.015,676.185z"/>
		</g>
	</g>
</g>
<g id="Livello_1">
</g>
</svg>
